# xmcd CD database file
#
# Track frame offsets:
#	150
#	12603
#	28046
#	41238
#	55237
#	69633
#	83439
#	97622
#	110032
#
# Disc length: 1643 seconds
#
# Revision: 0
# Processed by: cddbd v1.4PL0 Copyright (c) Steve Scherf et al.
# Submitted via: CDex 1.40Release
#
DISCID=6f066909
DTITLE=Hearns, Derek and Undertow - Ruthven Apple Festival Live
DYEAR=2000
DGENRE=Country
TTITLE0=Be My Baby Tonight
TTITLE1=Should've Been A Cowboy
TTITLE2=Pina Colada
TTITLE3=Watermelon Crawl
TTITLE4=How Do You Sleep
TTITLE5=Little Sister
TTITLE6=DAD and SON DAY
TTITLE7=Time Marches On
TTITLE8=Fulsom Prison Blues Jam
EXTD=YEAR: 2000 ID3G: 2
EXTT0=
EXTT1=
EXTT2=
EXTT3=
EXTT4=
EXTT5=
EXTT6=
EXTT7=
EXTT8=
PLAYORDER=
